<svg xmlns="http://www.w3.org/2000/svg" viewBox="66 118 1104 356" role="img">
<title>Traîneau du père Noël : trois rennes en tête tirent le traîneau où le père Noël fait coucou de la main.</title>
<defs>
  <linearGradient id="furGrad" x1="0" y1="0" x2="0" y2="1">
    <stop offset="0" stop-color="#5d4430"/>
    <stop offset="1" stop-color="#362a1e"/>
  </linearGradient>
</defs>
<g>
  <animateTransform attributeName="transform" type="translate" values="0 0;0 5;0 0" keyTimes="0;0.5;1" calcMode="spline" keySplines="0.45 0 0.55 1;0.45 0 0.55 1" dur="2.6s" begin="0s" repeatCount="indefinite"/>
  <path d="M 294 311 C 370 308 494 304 570 270 C 639 279 751 275 820 254 C 887 263 998 259 1065 238" fill="none" stroke="#b38728" stroke-width="4.5" stroke-linecap="round" opacity="0.95"/>
  <!-- traineau + Pere Noel -->
<g>
  <!-- patins + etraves -->
  <path d="M 88 450 C 180 462 280 458 330 442 C 350 435 352 416 340 406 C 332 399 322 403 322 412" fill="none" stroke="#d8b257" stroke-width="7" stroke-linecap="round"/>
  <path d="M 88 450 C 78 448 74 456 82 462" fill="none" stroke="#d8b257" stroke-width="7" stroke-linecap="round"/>
  <path d="M 150 420 L 146 448 M 288 412 L 292 440" fill="none" stroke="#d8b257" stroke-width="6" stroke-linecap="round"/>
  <!-- panneau arriere boucle -->
  <path d="M 116 340 C 104 312 106 282 126 270 C 142 262 156 272 150 286 C 146 296 134 298 128 292" fill="none" stroke="#8e1f26" stroke-width="20" stroke-linecap="round"/>
  <!-- sac de cadeaux -->
  <path d="M 130 332 C 122 306 134 284 156 282 C 178 280 190 296 186 318 C 184 328 178 334 170 336 Z" fill="#5d4530"/>
  <path d="M 146 286 C 150 278 162 276 168 280" fill="none" stroke="#3f2f22" stroke-width="5" stroke-linecap="round"/>
  <rect x="140" y="268" width="22" height="18" rx="2" fill="#2e5d43"/>
  <path d="M 151 268 L 151 286" stroke="#d8b257" stroke-width="3"/>
  <rect x="163" y="264" width="18" height="15" rx="2" fill="#a8232a"/>
  <path d="M 172 264 L 172 279" stroke="#d8b257" stroke-width="3"/>
  <!-- Pere Noel -->
  <g>
    <!-- bras lointain tenant les renes -->
    <path d="M 178 300 C 220 312 260 316 292 311" fill="none" stroke="#8c1d22" stroke-width="11" stroke-linecap="round"/>
    <circle cx="294" cy="311" r="6.5" fill="#6d1519"/>
    <!-- torse -->
    <path d="M 174 348 C 166 328 170 304 184 292 C 196 282 220 280 232 292 C 244 304 246 326 238 344 C 218 352 194 352 174 348 Z" fill="#a8232a"/>
    <path d="M 176 326 C 196 334 220 334 236 326 L 238 338 C 218 346 194 346 174 338 Z" fill="#3a1416"/>
    <rect x="200" y="324" width="15" height="12" rx="2" fill="#d8b257"/>
    <!-- tete + barbe + bonnet -->
    <path d="M 191 272 C 189 294 199 308 212 308 C 226 308 234 293 230 274 C 222 283 199 283 191 272 Z" fill="#f4ede1"/>
    <circle cx="207" cy="270" r="16.5" fill="#f2cfae"/>
    <path d="M 195 261 C 194 244 200 229 214 225 C 218 224 222 227 220 231 C 214 244 209 254 208 261 Z" fill="#a8232a"/>
    <path d="M 190 262 C 198 255 218 255 226 262 C 218 268 198 268 190 262 Z" fill="#f4ede1"/>
    <circle cx="221" cy="227" r="6.5" fill="#f4ede1"/>
    <!-- bras qui fait coucou -->
    <g>
      <path d="M 230 302 C 232 288 236 274 240 262" fill="none" stroke="#a8232a" stroke-width="13" stroke-linecap="round"/>
      <path d="M 231 268 L 244 270" stroke="#f4ede1" stroke-width="5" stroke-linecap="round"/>
      <circle cx="242" cy="252" r="8.5" fill="#f4ede1"/>
      <circle cx="250" cy="248" r="3.5" fill="#f4ede1"/>
      <animateTransform attributeName="transform" type="rotate" values="14 230 302;30 230 302;14 230 302" keyTimes="0;0.5;1" calcMode="spline" keySplines="0.45 0 0.55 1;0.45 0 0.55 1" dur="1.2s" begin="0s" repeatCount="indefinite"/>
    </g>
  </g>
  <!-- caisse du traineau (devant le bas du Pere Noel) -->
  <path d="M 116 336 C 160 350 258 348 304 334 C 314 362 310 392 296 414 C 240 424 176 424 140 420 C 124 394 110 362 116 336 Z" fill="#7c1b21"/>
  <path d="M 118 336 C 162 350 258 348 302 334" fill="none" stroke="#8e1f26" stroke-width="18" stroke-linecap="round"/>
  <path d="M 304 336 C 320 328 330 314 326 300 C 322 290 312 290 308 298" fill="none" stroke="#8e1f26" stroke-width="16" stroke-linecap="round"/>
  <path d="M 116 330 C 162 344 258 342 300 328" fill="none" stroke="#d8b257" stroke-width="4.5" stroke-linecap="round"/>
</g>
  <g transform="translate(520 296)">
  <!-- pattes lointaines (derriere le corps) -->
  <g>
  <path d="M 19 32 C 17 58 19 86 22 110 L 22 124 L 33 124 L 33 110 C 35 84 36 56 35 34 Z" fill="#291c12"/>
  <path d="M 22 120 L 34 120 L 34 133 L 22 133 Z" fill="#1d130c"/>
  <animateTransform attributeName="transform" type="rotate" values="-14 26 30;-38 26 30;-14 26 30" keyTimes="0;0.5;1" calcMode="spline" keySplines="0.45 0 0.55 1;0.45 0 0.55 1" dur="0.5s" begin="-0.28500000000000003s" repeatCount="indefinite"/>
</g>
<g>
  <path d="M -63 26 C -65 52 -63 80 -60 104 L -60 118 L -49 118 L -49 104 C -47 78 -46 50 -47 28 Z" fill="#291c12"/>
  <path d="M -60 114 L -48 114 L -48 127 L -60 127 Z" fill="#1d130c"/>
  <animateTransform attributeName="transform" type="rotate" values="36 -56 24;60 -56 24;36 -56 24" keyTimes="0;0.5;1" calcMode="spline" keySplines="0.45 0 0.55 1;0.45 0 0.55 1" dur="0.5s" begin="-0.535s" repeatCount="indefinite"/>
</g>
  <!-- queue -->
  <path d="M -80 -12 C -93 -19 -103 -14 -100 -5 C -92 0 -84 -3 -78 -1 Z" fill="#4a3527"/>
  <!-- corps -->
  <path d="M -82 4 C -78 -24 -42 -38 -4 -36 C 34 -34 68 -22 78 2 C 84 18 72 36 42 42 C 10 48 -36 46 -60 38 C -76 32 -86 20 -82 4 Z" fill="url(#furGrad)"/>
  <!-- cou -->
  <path d="M 46 -20 C 60 -36 74 -54 82 -74 L 104 -64 C 96 -44 88 -26 78 -12 Z" fill="#4a3527"/>
  <!-- tete (pivot au base du cou : leger hochement) -->
  <g>
    <path d="M 86 -93 C 80 -110 70 -124 56 -133" fill="none" stroke="#77563a" stroke-width="5.5" stroke-linecap="round"/>
    <path d="M 74 -108 C 64 -110 56 -108 50 -103" fill="none" stroke="#77563a" stroke-width="4.5" stroke-linecap="round"/>
    <path d="M 66 -122 C 60 -130 52 -134 44 -134" fill="none" stroke="#77563a" stroke-width="4.5" stroke-linecap="round"/>
    <path d="M 94 -90 C 96 -108 92 -124 84 -136" fill="none" stroke="#77563a" stroke-width="5.5" stroke-linecap="round"/>
    <path d="M 93 -114 C 88 -122 80 -126 72 -124" fill="none" stroke="#77563a" stroke-width="4.5" stroke-linecap="round"/>
    <path d="M 78 -90 C 68 -101 58 -105 50 -103 C 56 -94 66 -88 76 -86 Z" fill="#4a3527"/>
    <path d="M 80 -88 C 86 -100 102 -102 112 -94 C 119 -88 120 -78 112 -73 C 103 -68 88 -70 80 -78 Z" fill="#4a3527"/>
    <path d="M 108 -86 C 120 -84 129 -78 130 -71 C 130 -66 123 -64 117 -67 L 104 -76 Z" fill="#3c2b1f"/>
    <circle cx="101" cy="-86" r="2.3" fill="#e8d5b0"/>
    <circle cx="128" cy="-72" r="4.5" fill="#241811"/>
    <animateTransform attributeName="transform" type="rotate" values="2.5 78 -58;-2.5 78 -58;2.5 78 -58" keyTimes="0;0.5;1" calcMode="spline" keySplines="0.45 0 0.55 1;0.45 0 0.55 1" dur="1.5s" begin="-0.45999999999999996s" repeatCount="indefinite"/>
  </g>
  <!-- harnais -->
  <path d="M 56 -26 C 68 -8 66 12 52 30" fill="none" stroke="#d8b257" stroke-width="6" stroke-linecap="round"/>
  <path d="M 34 42 C 26 47 8 49 -8 47" fill="none" stroke="#d8b257" stroke-width="5" stroke-linecap="round"/>
  <path d="M 50 -26 C 56 -16 58 -6 56 4" fill="none" stroke="#b38728" stroke-width="4" stroke-linecap="round"/>
  <circle cx="66" cy="-16" r="3" fill="#f0cf7e"/>
  <circle cx="67" cy="-2" r="3" fill="#f0cf7e"/>
  <circle cx="61" cy="12" r="3" fill="#f0cf7e"/>
  <circle cx="50" cy="-26" r="5.5" fill="none" stroke="#b38728" stroke-width="3.5"/>
  <!-- pattes proches (devant le corps) -->
  <g>
  <path d="M -47 30 C -49 56 -47 84 -44 108 L -44 122 L -33 122 L -33 108 C -31 82 -30 54 -31 32 Z" fill="#43301f"/>
  <path d="M -44 118 L -32 118 L -32 131 L -44 131 Z" fill="#1d130c"/>
  <animateTransform attributeName="transform" type="rotate" values="24 -40 28;48 -40 28;24 -40 28" keyTimes="0;0.5;1" calcMode="spline" keySplines="0.45 0 0.55 1;0.45 0 0.55 1" dur="0.5s" begin="-0.41000000000000003s" repeatCount="indefinite"/>
</g>
<g>
  <path d="M 37 28 C 35 54 37 82 40 106 L 40 120 L 51 120 L 51 106 C 53 80 54 52 53 30 Z" fill="#43301f"/>
  <path d="M 40 116 L 52 116 L 52 129 L 40 129 Z" fill="#1d130c"/>
  <animateTransform attributeName="transform" type="rotate" values="-28 44 26;-52 44 26;-28 44 26" keyTimes="0;0.5;1" calcMode="spline" keySplines="0.45 0 0.55 1;0.45 0 0.55 1" dur="0.5s" begin="-0.16s" repeatCount="indefinite"/>
</g>
</g>
<g transform="translate(770 280)">
  <!-- pattes lointaines (derriere le corps) -->
  <g>
  <path d="M 19 32 C 17 58 19 86 22 110 L 22 124 L 33 124 L 33 110 C 35 84 36 56 35 34 Z" fill="#291c12"/>
  <path d="M 22 120 L 34 120 L 34 133 L 22 133 Z" fill="#1d130c"/>
  <animateTransform attributeName="transform" type="rotate" values="-14 26 30;-38 26 30;-14 26 30" keyTimes="0;0.5;1" calcMode="spline" keySplines="0.45 0 0.55 1;0.45 0 0.55 1" dur="0.5s" begin="-0.20500000000000002s" repeatCount="indefinite"/>
</g>
<g>
  <path d="M -63 26 C -65 52 -63 80 -60 104 L -60 118 L -49 118 L -49 104 C -47 78 -46 50 -47 28 Z" fill="#291c12"/>
  <path d="M -60 114 L -48 114 L -48 127 L -60 127 Z" fill="#1d130c"/>
  <animateTransform attributeName="transform" type="rotate" values="36 -56 24;60 -56 24;36 -56 24" keyTimes="0;0.5;1" calcMode="spline" keySplines="0.45 0 0.55 1;0.45 0 0.55 1" dur="0.5s" begin="-0.455s" repeatCount="indefinite"/>
</g>
  <!-- queue -->
  <path d="M -80 -12 C -93 -19 -103 -14 -100 -5 C -92 0 -84 -3 -78 -1 Z" fill="#4a3527"/>
  <!-- corps -->
  <path d="M -82 4 C -78 -24 -42 -38 -4 -36 C 34 -34 68 -22 78 2 C 84 18 72 36 42 42 C 10 48 -36 46 -60 38 C -76 32 -86 20 -82 4 Z" fill="url(#furGrad)"/>
  <!-- cou -->
  <path d="M 46 -20 C 60 -36 74 -54 82 -74 L 104 -64 C 96 -44 88 -26 78 -12 Z" fill="#4a3527"/>
  <!-- tete (pivot au base du cou : leger hochement) -->
  <g>
    <path d="M 86 -93 C 80 -110 70 -124 56 -133" fill="none" stroke="#77563a" stroke-width="5.5" stroke-linecap="round"/>
    <path d="M 74 -108 C 64 -110 56 -108 50 -103" fill="none" stroke="#77563a" stroke-width="4.5" stroke-linecap="round"/>
    <path d="M 66 -122 C 60 -130 52 -134 44 -134" fill="none" stroke="#77563a" stroke-width="4.5" stroke-linecap="round"/>
    <path d="M 94 -90 C 96 -108 92 -124 84 -136" fill="none" stroke="#77563a" stroke-width="5.5" stroke-linecap="round"/>
    <path d="M 93 -114 C 88 -122 80 -126 72 -124" fill="none" stroke="#77563a" stroke-width="4.5" stroke-linecap="round"/>
    <path d="M 78 -90 C 68 -101 58 -105 50 -103 C 56 -94 66 -88 76 -86 Z" fill="#4a3527"/>
    <path d="M 80 -88 C 86 -100 102 -102 112 -94 C 119 -88 120 -78 112 -73 C 103 -68 88 -70 80 -78 Z" fill="#4a3527"/>
    <path d="M 108 -86 C 120 -84 129 -78 130 -71 C 130 -66 123 -64 117 -67 L 104 -76 Z" fill="#3c2b1f"/>
    <circle cx="101" cy="-86" r="2.3" fill="#e8d5b0"/>
    <circle cx="128" cy="-72" r="4.5" fill="#241811"/>
    <animateTransform attributeName="transform" type="rotate" values="2.5 78 -58;-2.5 78 -58;2.5 78 -58" keyTimes="0;0.5;1" calcMode="spline" keySplines="0.45 0 0.55 1;0.45 0 0.55 1" dur="1.5s" begin="-0.38s" repeatCount="indefinite"/>
  </g>
  <!-- harnais -->
  <path d="M 56 -26 C 68 -8 66 12 52 30" fill="none" stroke="#d8b257" stroke-width="6" stroke-linecap="round"/>
  <path d="M 34 42 C 26 47 8 49 -8 47" fill="none" stroke="#d8b257" stroke-width="5" stroke-linecap="round"/>
  <path d="M 50 -26 C 56 -16 58 -6 56 4" fill="none" stroke="#b38728" stroke-width="4" stroke-linecap="round"/>
  <circle cx="66" cy="-16" r="3" fill="#f0cf7e"/>
  <circle cx="67" cy="-2" r="3" fill="#f0cf7e"/>
  <circle cx="61" cy="12" r="3" fill="#f0cf7e"/>
  <circle cx="50" cy="-26" r="5.5" fill="none" stroke="#b38728" stroke-width="3.5"/>
  <!-- pattes proches (devant le corps) -->
  <g>
  <path d="M -47 30 C -49 56 -47 84 -44 108 L -44 122 L -33 122 L -33 108 C -31 82 -30 54 -31 32 Z" fill="#43301f"/>
  <path d="M -44 118 L -32 118 L -32 131 L -44 131 Z" fill="#1d130c"/>
  <animateTransform attributeName="transform" type="rotate" values="24 -40 28;48 -40 28;24 -40 28" keyTimes="0;0.5;1" calcMode="spline" keySplines="0.45 0 0.55 1;0.45 0 0.55 1" dur="0.5s" begin="-0.33s" repeatCount="indefinite"/>
</g>
<g>
  <path d="M 37 28 C 35 54 37 82 40 106 L 40 120 L 51 120 L 51 106 C 53 80 54 52 53 30 Z" fill="#43301f"/>
  <path d="M 40 116 L 52 116 L 52 129 L 40 129 Z" fill="#1d130c"/>
  <animateTransform attributeName="transform" type="rotate" values="-28 44 26;-52 44 26;-28 44 26" keyTimes="0;0.5;1" calcMode="spline" keySplines="0.45 0 0.55 1;0.45 0 0.55 1" dur="0.5s" begin="-0.08s" repeatCount="indefinite"/>
</g>
</g>
<g transform="translate(1015 264)">
  <!-- pattes lointaines (derriere le corps) -->
  <g>
  <path d="M 19 32 C 17 58 19 86 22 110 L 22 124 L 33 124 L 33 110 C 35 84 36 56 35 34 Z" fill="#291c12"/>
  <path d="M 22 120 L 34 120 L 34 133 L 22 133 Z" fill="#1d130c"/>
  <animateTransform attributeName="transform" type="rotate" values="-14 26 30;-38 26 30;-14 26 30" keyTimes="0;0.5;1" calcMode="spline" keySplines="0.45 0 0.55 1;0.45 0 0.55 1" dur="0.5s" begin="-0.125s" repeatCount="indefinite"/>
</g>
<g>
  <path d="M -63 26 C -65 52 -63 80 -60 104 L -60 118 L -49 118 L -49 104 C -47 78 -46 50 -47 28 Z" fill="#291c12"/>
  <path d="M -60 114 L -48 114 L -48 127 L -60 127 Z" fill="#1d130c"/>
  <animateTransform attributeName="transform" type="rotate" values="36 -56 24;60 -56 24;36 -56 24" keyTimes="0;0.5;1" calcMode="spline" keySplines="0.45 0 0.55 1;0.45 0 0.55 1" dur="0.5s" begin="-0.375s" repeatCount="indefinite"/>
</g>
  <!-- queue -->
  <path d="M -80 -12 C -93 -19 -103 -14 -100 -5 C -92 0 -84 -3 -78 -1 Z" fill="#4a3527"/>
  <!-- corps -->
  <path d="M -82 4 C -78 -24 -42 -38 -4 -36 C 34 -34 68 -22 78 2 C 84 18 72 36 42 42 C 10 48 -36 46 -60 38 C -76 32 -86 20 -82 4 Z" fill="url(#furGrad)"/>
  <!-- cou -->
  <path d="M 46 -20 C 60 -36 74 -54 82 -74 L 104 -64 C 96 -44 88 -26 78 -12 Z" fill="#4a3527"/>
  <!-- tete (pivot au base du cou : leger hochement) -->
  <g>
    <path d="M 86 -93 C 80 -110 70 -124 56 -133" fill="none" stroke="#77563a" stroke-width="5.5" stroke-linecap="round"/>
    <path d="M 74 -108 C 64 -110 56 -108 50 -103" fill="none" stroke="#77563a" stroke-width="4.5" stroke-linecap="round"/>
    <path d="M 66 -122 C 60 -130 52 -134 44 -134" fill="none" stroke="#77563a" stroke-width="4.5" stroke-linecap="round"/>
    <path d="M 94 -90 C 96 -108 92 -124 84 -136" fill="none" stroke="#77563a" stroke-width="5.5" stroke-linecap="round"/>
    <path d="M 93 -114 C 88 -122 80 -126 72 -124" fill="none" stroke="#77563a" stroke-width="4.5" stroke-linecap="round"/>
    <path d="M 78 -90 C 68 -101 58 -105 50 -103 C 56 -94 66 -88 76 -86 Z" fill="#4a3527"/>
    <path d="M 80 -88 C 86 -100 102 -102 112 -94 C 119 -88 120 -78 112 -73 C 103 -68 88 -70 80 -78 Z" fill="#4a3527"/>
    <path d="M 108 -86 C 120 -84 129 -78 130 -71 C 130 -66 123 -64 117 -67 L 104 -76 Z" fill="#3c2b1f"/>
    <circle cx="101" cy="-86" r="2.3" fill="#e8d5b0"/>
    <circle cx="128" cy="-72" r="16" fill="#ff6a55" opacity="0.16">
    <animate attributeName="opacity" values="0.10;0.30;0.10" keyTimes="0;0.5;1" calcMode="spline" keySplines="0.45 0 0.55 1;0.45 0 0.55 1" dur="1.6s" begin="0s" repeatCount="indefinite"/>
    <animate attributeName="r" values="13;19;13" keyTimes="0;0.5;1" calcMode="spline" keySplines="0.45 0 0.55 1;0.45 0 0.55 1" dur="1.6s" begin="0s" repeatCount="indefinite"/>
  </circle>
  <circle cx="128" cy="-72" r="9" fill="#ff6a55" opacity="0.30">
    <animate attributeName="opacity" values="0.18;0.45;0.18" keyTimes="0;0.5;1" calcMode="spline" keySplines="0.45 0 0.55 1;0.45 0 0.55 1" dur="1.6s" begin="0s" repeatCount="indefinite"/>
  </circle>
  <circle cx="128" cy="-72" r="6" fill="#ff3b30"/>
  <circle cx="130" cy="-74" r="1.8" fill="#ffb3a8"/>
    <animateTransform attributeName="transform" type="rotate" values="2.5 78 -58;-2.5 78 -58;2.5 78 -58" keyTimes="0;0.5;1" calcMode="spline" keySplines="0.45 0 0.55 1;0.45 0 0.55 1" dur="1.5s" begin="-0.3s" repeatCount="indefinite"/>
  </g>
  <!-- harnais -->
  <path d="M 56 -26 C 68 -8 66 12 52 30" fill="none" stroke="#d8b257" stroke-width="6" stroke-linecap="round"/>
  <path d="M 34 42 C 26 47 8 49 -8 47" fill="none" stroke="#d8b257" stroke-width="5" stroke-linecap="round"/>
  <path d="M 50 -26 C 56 -16 58 -6 56 4" fill="none" stroke="#b38728" stroke-width="4" stroke-linecap="round"/>
  <circle cx="66" cy="-16" r="3" fill="#f0cf7e"/>
  <circle cx="67" cy="-2" r="3" fill="#f0cf7e"/>
  <circle cx="61" cy="12" r="3" fill="#f0cf7e"/>
  <circle cx="50" cy="-26" r="5.5" fill="none" stroke="#b38728" stroke-width="3.5"/>
  <!-- pattes proches (devant le corps) -->
  <g>
  <path d="M -47 30 C -49 56 -47 84 -44 108 L -44 122 L -33 122 L -33 108 C -31 82 -30 54 -31 32 Z" fill="#43301f"/>
  <path d="M -44 118 L -32 118 L -32 131 L -44 131 Z" fill="#1d130c"/>
  <animateTransform attributeName="transform" type="rotate" values="24 -40 28;48 -40 28;24 -40 28" keyTimes="0;0.5;1" calcMode="spline" keySplines="0.45 0 0.55 1;0.45 0 0.55 1" dur="0.5s" begin="-0.25s" repeatCount="indefinite"/>
</g>
<g>
  <path d="M 37 28 C 35 54 37 82 40 106 L 40 120 L 51 120 L 51 106 C 53 80 54 52 53 30 Z" fill="#43301f"/>
  <path d="M 40 116 L 52 116 L 52 129 L 40 129 Z" fill="#1d130c"/>
  <animateTransform attributeName="transform" type="rotate" values="-28 44 26;-52 44 26;-28 44 26" keyTimes="0;0.5;1" calcMode="spline" keySplines="0.45 0 0.55 1;0.45 0 0.55 1" dur="0.5s" begin="0.0s" repeatCount="indefinite"/>
</g>
</g>
  <g transform="translate(420 214)">
  <path d="M 0 -7 L 2 -2 L 7 0 L 2 2 L 0 7 L -2 2 L -7 0 L -2 -2 Z" fill="#f0cf7e">
    <animate attributeName="opacity" values="0.15;0.9;0.15" keyTimes="0;0.5;1" calcMode="spline" keySplines="0.45 0 0.55 1;0.45 0 0.55 1" dur="1.3s" begin="0.0s" repeatCount="indefinite"/>
  </path>
</g>
<g transform="translate(700 178)">
  <path d="M 0 -7 L 2 -2 L 7 0 L 2 2 L 0 7 L -2 2 L -7 0 L -2 -2 Z" fill="#f0cf7e">
    <animate attributeName="opacity" values="0.15;0.9;0.15" keyTimes="0;0.5;1" calcMode="spline" keySplines="0.45 0 0.55 1;0.45 0 0.55 1" dur="1.65s" begin="-0.5s" repeatCount="indefinite"/>
  </path>
</g>
<g transform="translate(962 166)">
  <path d="M 0 -7 L 2 -2 L 7 0 L 2 2 L 0 7 L -2 2 L -7 0 L -2 -2 Z" fill="#f0cf7e">
    <animate attributeName="opacity" values="0.15;0.9;0.15" keyTimes="0;0.5;1" calcMode="spline" keySplines="0.45 0 0.55 1;0.45 0 0.55 1" dur="2.0s" begin="-1.0s" repeatCount="indefinite"/>
  </path>
</g>
</g>
</svg>
